<svg width="280" height="71" viewBox="0 0 280 71" fill="none" xmlns="http://www.w3.org/2000/svg">
<g clip-path="url(#clip0_15_3376)">
<path d="M89.6797 55.6258L93.1656 47.5754C96.9327 50.3707 101.937 51.8242 106.885 51.8242C110.539 51.8242 112.844 50.4266 112.844 48.3022C112.788 42.3762 90.9729 47.0164 90.8042 32.1455C90.748 24.5982 97.4949 18.7841 107.053 18.7841C112.732 18.7841 118.411 20.1817 122.459 23.3683L119.198 31.5864C115.487 29.2384 110.876 27.5612 106.491 27.5612C103.511 27.5612 101.543 28.9589 101.543 30.7479C101.599 36.562 123.583 33.3754 123.808 47.5754C123.808 55.2904 117.23 60.7132 107.784 60.7132C100.868 60.7132 94.515 59.0919 89.6797 55.6258ZM223.439 44.6683C221.696 47.6872 218.435 49.7557 214.668 49.7557C209.101 49.7557 204.603 45.2833 204.603 39.7486C204.603 34.214 209.101 29.7416 214.668 29.7416C218.435 29.7416 221.696 31.8101 223.439 34.829L233.053 29.5179C229.455 23.1447 222.539 18.7841 214.668 18.7841C203.029 18.7841 193.583 28.1762 193.583 39.7486C193.583 51.3211 203.029 60.7132 214.668 60.7132C222.595 60.7132 229.455 56.4085 233.053 49.9793L223.439 44.6683ZM128.644 1.39746H140.676V59.9305H128.644V1.39746ZM237.776 1.39746V59.9305H249.808V42.3762L264.089 59.9305H279.495L261.334 39.0778L278.146 19.6227H263.415L249.808 35.7794V1.39746H237.776ZM176.435 44.7801C174.692 47.6313 171.093 49.7557 167.045 49.7557C161.479 49.7557 156.981 45.2833 156.981 39.7486C156.981 34.214 161.479 29.7416 167.045 29.7416C171.093 29.7416 174.692 31.9778 176.435 34.8849V44.7801ZM176.435 19.6227V24.3746C174.467 21.0762 169.575 18.7841 164.459 18.7841C153.889 18.7841 145.567 28.0644 145.567 39.6927C145.567 51.3211 153.889 60.7132 164.459 60.7132C169.575 60.7132 174.467 58.4211 176.435 55.1227V59.8746H188.467V19.6227H176.435Z" fill="black"/>
<path d="M15.2944 44.7243C15.2944 48.8054 11.9772 52.1038 7.87274 52.1038C3.76832 52.1038 0.45105 48.8054 0.45105 44.7243C0.45105 40.6431 3.76832 37.3447 7.87274 37.3447H15.2944V44.7243ZM19.0053 44.7243C19.0053 40.6431 22.3225 37.3447 26.427 37.3447C30.5314 37.3447 33.8486 40.6431 33.8486 44.7243V63.1731C33.8486 67.2542 30.5314 70.5526 26.427 70.5526C22.3225 70.5526 19.0053 67.2542 19.0053 63.1731V44.7243Z" fill="#E01E5A"/>
<path d="M26.4267 15.0945C22.3222 15.0945 19.005 11.7961 19.005 7.71498C19.005 3.63387 22.3222 0.335449 26.4267 0.335449C30.5311 0.335449 33.8483 3.63387 33.8483 7.71498V15.0945H26.4267ZM26.4267 18.8402C30.5311 18.8402 33.8483 22.1386 33.8483 26.2197C33.8483 30.3008 30.5311 33.5992 26.4267 33.5992H7.81622C3.7118 33.5992 0.394531 30.3008 0.394531 26.2197C0.394531 22.1386 3.7118 18.8402 7.81622 18.8402H26.4267Z" fill="#36C5F0"/>
<path d="M56.1697 26.2197C56.1697 22.1386 59.487 18.8402 63.5914 18.8402C67.6958 18.8402 71.0131 22.1386 71.0131 26.2197C71.0131 30.3008 67.6958 33.5992 63.5914 33.5992H56.1697V26.2197ZM52.4588 26.2197C52.4588 30.3008 49.1416 33.5992 45.0372 33.5992C40.9327 33.5992 37.6155 30.3008 37.6155 26.2197V7.71498C37.6155 3.63387 40.9327 0.335449 45.0372 0.335449C49.1416 0.335449 52.4588 3.63387 52.4588 7.71498V26.2197Z" fill="#2EB67D"/>
<path d="M45.0372 55.7935C49.1416 55.7935 52.4588 59.092 52.4588 63.1731C52.4588 67.2542 49.1416 70.5526 45.0372 70.5526C40.9327 70.5526 37.6155 67.2542 37.6155 63.1731V55.7935H45.0372ZM45.0372 52.1038C40.9327 52.1038 37.6155 48.8054 37.6155 44.7243C37.6155 40.6431 40.9327 37.3447 45.0372 37.3447H63.6476C67.752 37.3447 71.0693 40.6431 71.0693 44.7243C71.0693 48.8054 67.752 52.1038 63.6476 52.1038H45.0372Z" fill="#ECB22E"/>
</g>
<defs>
<clipPath id="clip0_15_3376">
<rect width="280" height="71" fill="white"/>
</clipPath>
</defs>
</svg>
